<?xml version="1.0" encoding="utf-8"?>
<!-- Generator: Adobe Illustrator 18.0.0, SVG Export Plug-In . SVG Version: 6.00 Build 0)  -->
<!DOCTYPE svg PUBLIC "-//W3C//DTD SVG 1.1//EN" "http://www.w3.org/Graphics/SVG/1.1/DTD/svg11.dtd">
<svg version="1.1" id="Layer_1" xmlns="http://www.w3.org/2000/svg" xmlns:xlink="http://www.w3.org/1999/xlink" x="0px" y="0px"
	 viewBox="-185.6 285.1 962 191.3" enable-background="new -185.6 285.1 962 191.3" xml:space="preserve">
<path fill="#D02426" d="M89.3,340.3v39.2H75.3v-92.6h13.9v39.4h16.8v-39.4H120v92.6h-13.9v-39.2H89.3z M132.6,379.4v-92.6h39.7v13.9
	h-25.8v25.5h18.8v13.9h-18.8v25.3h25.8v13.9L132.6,379.4L132.6,379.4z M199.9,358.2l-3.4,21.3H182l15.7-92.6h19.2l15.5,92.6h-14.6
	l-3.3-21.3H199.9z M207.2,308.1l-5.2,36.5h10.3L207.2,308.1z M282.1,379.4h-38v-92.6H258v78.7h24.1V379.4z M292.8,300.8H278v-13.9
	h43.5v13.9h-14.8v78.7h-13.9V300.8z M346.6,340.3v39.2h-13.9v-92.6h13.9v39.4h16.8v-39.4h13.9v92.6h-13.9v-39.2H346.6z M425.4,379.4
	v-92.6h20.9c5.5,0,10.5,1.4,14.9,4.4c3.8,2.5,6.5,6.3,8.1,11.4c0.9,2.8,1.3,6.1,1.3,9.9c0,6.2-1.6,11.1-4.9,14.9
	c-1.4,1.6-3,2.7-4.9,3.6c3.1,1.2,5.7,3.5,7.8,7c1.4,2.4,2.5,5.4,3.2,9.1c0.3,1.9,0.5,4.1,0.5,6.5c0,5.9-1.1,10.8-3.3,14.9
	c-1.7,3.2-4.2,5.7-7.3,7.7c-3.5,2.2-7.1,3.3-10.5,3.3L425.4,379.4L425.4,379.4z M440.4,365.6h5.8c4.7,0,8-2.4,9.8-7.3
	c0.7-1.7,1-3.6,1-5.8c0-5.2-1-9-3-11.3c-1.8-2.2-4.3-3.3-7.8-3.3h-5.8L440.4,365.6L440.4,365.6z M440.4,324.7h5.8
	c4.3,0,7.2-2.1,8.7-6.3c0.5-1.6,0.8-3.5,0.8-5.9c0-3.9-0.9-6.8-2.8-8.7c-1.7-1.8-4-2.7-6.7-2.7h-5.8L440.4,324.7L440.4,324.7z
	 M498.4,379.4h-13.9v-92.6h13.9V379.4z M532.9,285.8c6.2,0,11.4,2.2,15.7,6.5c4.3,4.3,6.5,9.6,6.5,15.6v50.5
	c0,6.2-2.2,11.4-6.5,15.7c-4.3,4.3-9.6,6.5-15.7,6.5s-11.3-2.2-15.6-6.5c-4.3-4.3-6.4-9.6-6.4-15.6V308c0-6.2,2.2-11.4,6.5-15.7
	C521.6,288,526.8,285.8,532.9,285.8z M540.5,307.7c0-2.2-0.8-4.1-2.3-5.6c-1.6-1.5-3.5-2.3-5.7-2.3c-2.2,0-4.1,0.8-5.7,2.3
	c-1.6,1.5-2.4,3.4-2.4,5.6v50.6c0,2.2,0.8,4.1,2.4,5.6c1.6,1.6,3.5,2.3,5.7,2.3c2.2,0,4.1-0.8,5.7-2.3c1.5-1.5,2.3-3.4,2.3-5.6
	V307.7z M579.4,300.8h-14.8v-13.9h43.5v13.9h-14.8v78.7h-13.9V300.8z M619.3,379.4v-92.6H659v13.9h-25.8v25.5h18.8v13.9h-18.8v25.3
	H659v13.9L619.3,379.4L619.3,379.4z M690.8,380.6c-6.2,0-11.4-2.2-15.7-6.4c-4.3-4.3-6.5-9.5-6.5-15.6v-50.7
	c0-6.1,2.2-11.3,6.5-15.6c4.3-4.3,9.6-6.5,15.6-6.5c6.2,0,11.4,2.2,15.7,6.5c4.3,4.3,6.4,9.6,6.4,15.6v10.6h-14.5v-10.8
	c0-2.2-0.8-4.1-2.4-5.7s-3.5-2.4-5.7-2.4c-2.2,0-4.1,0.8-5.7,2.4c-1.6,1.6-2.3,3.5-2.3,5.7v50.8c0,2.2,0.8,4.1,2.3,5.7
	c1.6,1.6,3.5,2.4,5.7,2.4c2.2,0,4.2-0.8,5.7-2.4c1.6-1.6,2.4-3.5,2.4-5.7v-12.7h14.5v12.9c0,6.2-2.2,11.4-6.5,15.7
	C702.1,378.5,696.9,380.7,690.8,380.6L690.8,380.6z M738.2,340.3v39.2h-13.9v-92.6h13.9v39.4H755v-39.4h13.9v92.6H755v-39.2H738.2z"
	/>
<polygon fill="#2B2A29" points="67.8,389.1 776.4,389.1 776.4,476.3 67.8,476.3 "/>
<path fill="#FEFEFE" d="M247.9,449.3v4.6h-31.3v-42.6h6.8v37.9L247.9,449.3L247.9,449.3z M286.3,454h-6.7v-42.6h6.7V454z M374.7,454
	h-6.5v-37.2L351,454h-4.5l-17.4-37.2V454h-5.7v-42.6h10l15.9,34l15.7-34h9.7V454z M418.6,454H412v-42.6h6.7V454z M471.8,454h-6.7
	v-37.9h-15.2v-4.6h37.2v4.6h-15.2L471.8,454L471.8,454z M552.8,449.3v4.6h-34.4v-42.6h33.6v4.6h-27v13.5h21.4v4.3h-21.4v15.4
	L552.8,449.3L552.8,449.3z M586,454v-42.6h17.8c7.5,0,13.4,2,17.5,6.2c4.2,4.1,6.3,9.1,6.3,15c0,6-2,11.1-6.1,15.2
	c-4.1,4.1-9.2,6.2-15.5,6.2L586,454L586,454z M592.7,449.4h10.8c5.7,0,10-1.6,13-4.7c3-3.1,4.5-7.3,4.5-12.5c0-4.2-1.4-8-4.2-11.3
	c-2.8-3.3-7.2-5-13.2-5h-10.8V449.4L592.7,449.4z"/>
<path fill="none" stroke="#D02426" stroke-width="4" d="M-100,323.7c61.3-40.6,124.9-48.8,143.7-17.6s-16.5,90.7-77.8,131.3
	c-62.4,42-127.2,48.8-144.9,17.6S-162.5,365.7-100,323.7L-100,323.7z"/>
<path fill="none" stroke="#2B2A29" stroke-width="4" d="M-52.9,323.7c55.4,29.8,94.2,78.5,86,111s-60.1,32.5-115.4,4
	c-56.5-29.8-94.2-78.5-86-111C-161.3,295.3-109.4,295.3-52.9,323.7z"/>
<path fill="#D02426" d="M-100,344c21.2,24.4,35.3,14.9,66,12.2c-25.9,12.2-40.1,25.7-61.3,75.8C-85.9,400.9-82.3,372.4-100,344z"/>
<path fill="#2B2A29" stroke="#2B2A29" stroke-width="7.62" d="M-67,333.2c3.5,0,7.1,4,7.1,9.5s-3.5,8.1-7.1,8.1
	c-5.9,0-8.2-2.7-8.2-8.1S-72.9,333.2-67,333.2z"/>
</svg>
